<svg height="512pt" viewBox="0 0 512 512" width="512pt" xmlns="http://www.w3.org/2000/svg"><path d="m512 256c0 141.386719-114.613281 256-256 256s-256-114.613281-256-256 114.613281-256 256-256 256 114.613281 256 256zm0 0" fill="#7fc8f1"/><path d="m512 256c0-8.984375-.46875-17.859375-1.371094-26.605469l-109.03125-109.03125c-36.328125-38.976562-88.109375-63.363281-145.597656-63.363281-109.90625 0-199 89.09375-199 199 0 57.488281 24.386719 109.269531 63.363281 145.597656l109.035157 109.03125c8.742187.902344 17.617187 1.371094 26.601562 1.371094 141.386719 0 256-114.613281 256-256zm0 0" fill="#009ae5"/><path d="m455 256c0 109.90625-89.09375 199-199 199s-199-89.09375-199-199 89.09375-199 199-199 199 89.09375 199 199zm0 0" fill="#ff0335"/><path d="m455 256c0 109.898438-89.101562 199-199 199v-398c109.898438 0 199 89.101562 199 199zm0 0" fill="#c2001b"/><path d="m256 384.171875c-70.675781 0-128.171875-57.5-128.171875-128.171875s57.496094-128.171875 128.171875-128.171875 128.171875 57.5 128.171875 128.171875-57.496094 128.171875-128.171875 128.171875zm0-226.34375c-54.132812 0-98.171875 44.039063-98.171875 98.171875s44.039063 98.171875 98.171875 98.171875 98.171875-44.039063 98.171875-98.171875-44.039063-98.171875-98.171875-98.171875zm0 0" fill="#fff"/><path d="m314.769531 142.109375c-3.980469-2.058594-8.089843-3.917969-12.300781-5.558594-14.410156-5.628906-30.089844-8.722656-46.46875-8.722656v30c7.589844 0 14.980469.871094 22.078125 2.511719 7.722656 1.78125 15.101563 4.46875 22.011719 7.96875 32.050781 16.171875 54.082031 49.410156 54.082031 87.691406 0 54.128906-44.042969 98.171875-98.171875 98.171875v30c70.671875 0 128.171875-57.5 128.171875-128.171875 0-49.5-28.210937-92.539062-69.402344-113.890625zm0 0" fill="#fff5cb"/><path d="m336.464844 103.375-159.398438 155.480469h68.203125l-61.601562 138.695312 152.796875-177.371093h-65.433594zm0 0" fill="#ffec97"/><path d="m271.03125 220.179688h65.4375l-80.46875 93.410156v-131.71875l22.078125-21.53125 24.390625-23.789063 34-33.171875-21.699219 38.730469-14.679687 26.199219zm0 0" fill="#fdc000"/></svg>